<svg xmlns="http://www.w3.org/2000/svg" viewBox="0 0 128 128"><path fill="#00df1a" fill-rule="nonzero" d="M64 16c-26.28 0-47.904 21.625-47.904 47.904S37.72 111.808 64 111.808s47.904-21.625 47.904-47.904C111.881 37.634 90.271 16.023 64 16m25.127 50.134a3.6 3.6 0 0 1-1.024.602 5.4 5.4 0 0 1-1.326.362 9.1 9.1 0 0 1-3.133-.06 20.4 20.4 0 0 1-6.628-2.652 40 40 0 0 1-5.966-4.519q-1.326-1.265-2.711-2.711c-.844-.904-1.748-1.929-2.531-2.953a1.03 1.03 0 0 0-1.386-.241 1.077 1.077 0 0 0-.362 1.446c.723 1.145 1.507 2.23 2.29 3.314s1.687 2.11 2.591 3.134a40.4 40.4 0 0 0 6.026 5.543 24.5 24.5 0 0 0 7.592 3.857 21.5 21.5 0 0 0 2.832.542.703.703 0 0 1 .663.783.46.46 0 0 1-.12.302 36.937 36.938 0 0 1-5.665 7.29c-6.688 6.69-15.245 10.365-23.018 10.365a20.96 20.96 0 0 1-9.4-2.049l-.663-.301a.77.77 0 0 0-.723 0l-.602.422a6.1 6.1 0 0 1-3.314 1.024 3.45 3.45 0 0 1-2.652-1.024c-1.265-1.266-1.326-3.676-.06-5.785l.362-.663a.77.77 0 0 0 0-.723l-.362-.663c-3.314-6.267-3.073-14.522.301-22.174a.723.723 0 0 1 .964-.362.54.54 0 0 1 .362.362 27.7 27.7 0 0 0 2.53 4.76 37.6 37.6 0 0 0 5.243 6.327A33 33 0 0 0 52.25 72.4a64 64 0 0 0 3.194 2.471 1.03 1.03 0 0 0 .632.217c.566 0 1.03-.465 1.03-1.03a1.03 1.03 0 0 0-.397-.814c-.964-.844-1.928-1.747-2.832-2.651s-1.748-1.868-2.591-2.832a39 39 0 0 1-4.218-6.207 19.4 19.4 0 0 1-2.23-6.749 9.1 9.1 0 0 1 0-3.133q.17-.617.422-1.205l.241-.362a29 29 0 0 1 2.23-2.41c9.821-9.882 23.5-13.136 33.14-7.954l.724.362a.77.77 0 0 0 .723 0l.663-.422c2.23-1.446 4.76-1.507 6.146-.12s1.326 4.037-.241 6.327l-.482.602a.78.78 0 0 0-.06.723l.361.723c2.47 5.243 2.591 11.75.422 18.198"/></svg>